/* XPM */
static char *_e7f68940b7b4eac96b2b1d1b2033d3beNdwmqphyi1zfKr9[] = {
/* columns rows colors chars-per-pixel */
"32 32 5 1 ",
"  c gray13",
". c #33691E",
"X c #1B5E20",
"o c #6D4C41",
"O c #00C853",
/* pixels */
".OOOOOOOOOOOOOOOOOOO  OO  OOOOOO",
"OOOOOOOOOOOOOOOOOOOO  OO  OOOOOO",
".OOOOOOOOOOOOOOO    ..  ..  OOOO",
"OOOOOOOOOOOOOOOO    ..  ..  OOOO",
".OOO  OO  OOOOOO  ..........  OO",
"OOOO  OO  OOOOOO  ..........  OO",
".O  ..  ..  OOOOOO  ..XXXX....  ",
"OO  ..  ..  OOOOOO  ..XXXX....  ",
". ..........  OO  ....XX....  OO",
"  ..........  OO  ....XX....  OO",
".O  ..XXXX..    oo  XX....  OOOO",
"OO  ..XXXX..    oo  XX....  OOOO",
". ......XX  oo  oooo  ..    OOOO",
"  ......XX  oo  oooo  ..    OOOO",
".O  ..  ..  oooooooooo    OOOOOO",
"OO  ..  ..  oooooooooo    OOOOOO",
".OOO  OO    oooooooo  OOOOOOOOOO",
"OOOO  OO    oooooooo  OOOOOOOOOO",
".OOOOOOOOOOO  oooo  OOOOOOOOOOOO",
"OOOOOOOOOOOO  oooo  OOOOOOOOOOOO",
".OOOOOOOOOOO  oooo  OOOOOOOOOOOO",
"OOOOOOOOOOOO  oooo  OOOOOOOOOOOO",
".OOOOOOOOOOO  oooo  OOOOOOOOOOOO",
"OOOOOOOOOOOO  oooo  OOOOOOOOOOOO",
".OOOOOOOOO  oooooooo  OOOOOOOOOO",
"OOOOOOOOOO  oooooooo  OOOOOOOOOO",
".OOOOOOO  oooooooooooo  OOOOOOOO",
"OOOOOOOO  oooooooooooo  OOOOOOOO",
".OOOOOOOOO    oooo    OOOOOOOOOO",
"OOOOOOOOOO    oooo    OOOOOOOOOO",
".OOOOOOOOOOOOO    OOOOOOOOOOOOOO",
"OOOOOOOOOOOOOO    OOOOOOOOOOOOOO"
};
